<svg width="69" height="66" viewBox="0 0 69 66" fill="none" xmlns="http://www.w3.org/2000/svg">
<path d="M27.944 39.5965H17.5389L15.4217 46.1854C15.3945 46.2983 15.331 46.3992 15.241 46.4725C15.1509 46.5458 15.0392 46.5875 14.9231 46.5911L9.61127 46.5909C9.31052 46.5909 9.20543 46.4256 9.296 46.0951L18.3047 20.2576L18.3947 19.9862L18.4246 19.8933L18.4849 19.6992C18.5148 19.599 18.5447 19.4928 18.5749 19.3777C18.6929 18.7768 18.7532 18.1659 18.7551 17.5535C18.749 17.5107 18.7529 17.467 18.7666 17.426C18.7803 17.3849 18.8034 17.3477 18.834 17.3171C18.8645 17.2865 18.9018 17.2635 18.9428 17.2498C18.9839 17.2361 19.0275 17.2321 19.0703 17.2382H26.2323C26.4421 17.2382 26.5623 17.3133 26.5927 17.4635L36.8174 46.1405C36.9074 46.4409 36.8174 46.591 36.5472 46.5909H30.6914C30.5909 46.6018 30.4898 46.5759 30.407 46.5179C30.3241 46.4599 30.2652 46.3738 30.2411 46.2756L27.944 39.5965ZM19.1606 34.041H26.2774L26.1759 33.7061L26.013 33.1757L25.7746 32.4162L25.3169 30.9822L24.881 29.6042L24.07 27.0367C23.846 26.3279 23.6309 25.6164 23.4248 24.9022L23.1945 24.0902L22.9459 23.2002L22.7187 22.3748H22.6736C22.4482 23.456 22.1737 24.5263 21.8511 25.5826L21.5468 26.559L20.8151 28.9196L20.4442 30.1222C20.3772 30.3394 20.3103 30.5541 20.2435 30.7664L20.0442 31.3953L19.8459 32.0096L19.6487 32.6087L19.4525 33.1928C19.3547 33.4813 19.2574 33.764 19.1606 34.041ZM53.3936 37.0321H44.5202C44.6287 37.9101 44.9202 38.7554 45.376 39.5136C45.8797 40.2645 46.592 40.8516 47.4253 41.2027C48.5545 41.6916 49.776 41.931 51.0062 41.9046C51.9823 41.8857 52.9547 41.779 53.9116 41.5857C54.7674 41.4702 55.6061 41.2516 56.4093 40.9347C56.5595 40.8149 56.6347 40.8899 56.6349 41.1597V45.4389C56.6422 45.5556 56.6189 45.6721 56.567 45.7767C56.5156 45.8586 56.4463 45.9278 56.3645 45.9795C55.4734 46.3741 54.5356 46.6535 53.5738 46.8109C52.2671 47.0562 50.9391 47.1693 49.6098 47.1485C47.5441 47.1485 45.8028 46.8385 44.3859 46.2187L44.2495 46.1576C42.8873 45.5577 41.6843 44.6476 40.7365 43.5001C39.851 42.4188 39.1922 41.1704 38.7995 39.8291C38.4108 38.5052 38.2138 37.1325 38.2143 35.7527C38.21 34.2461 38.4457 32.7484 38.9125 31.3159C39.362 29.9186 40.0727 28.6194 41.0069 27.4873C41.9286 26.3686 43.0809 25.462 44.3851 24.8295C45.7062 24.1843 47.2679 23.9527 49.0695 23.9527C50.5638 23.9153 52.0479 24.2075 53.4164 24.8086C54.567 25.2992 55.5799 26.0642 56.3666 27.0367C57.1048 27.9888 57.669 29.0638 58.0331 30.2122C58.3878 31.3188 58.5701 32.4734 58.5737 33.6355C58.5737 34.2965 58.5512 34.8971 58.5063 35.4374L58.4662 35.9001L58.4242 36.3392L58.3993 36.5616L58.3935 36.6085C58.3818 36.7078 58.3341 36.7993 58.2594 36.8658C58.1847 36.9322 58.0883 36.9689 57.9883 36.9689L57.8648 36.9715L57.7108 36.9794L57.5909 36.9881L57.3108 37.0119L57.0648 37.0363C56.9978 37.0433 56.9283 37.0499 56.8563 37.056L56.6331 37.0736L56.3946 37.0893L56.1415 37.1024L55.8735 37.1137L55.7337 37.1184L55.4433 37.1263C55.1561 37.1334 54.8619 37.1155 54.56 37.0935L54.102 37.0599C53.8663 37.0427 53.6299 37.0334 53.3936 37.0321ZM44.5204 32.9287H50.6543L51.1767 32.9252L51.5319 32.9203L51.7619 32.915L52.02 32.9061C52.251 32.883 52.474 32.8091 52.6731 32.6897V32.4196C52.6642 32.0673 52.6036 31.7182 52.4931 31.3835C52.2502 30.615 51.7616 29.9476 51.1025 29.4837C50.4433 29.0198 49.6502 28.7851 48.8448 28.8158C48.0867 28.77 47.3317 28.9458 46.6718 29.3217C46.0119 29.6976 45.4756 30.2575 45.1284 30.9329C44.8197 31.5612 44.6144 32.2349 44.5204 32.9287Z" fill="white"/>
</svg>
