<svg width="66" height="66" viewBox="0 0 66 66" fill="none" xmlns="http://www.w3.org/2000/svg">
<path d="M34.1518 35.6722C34.2371 34.1873 34.9791 32.8764 36.1019 31.9499C37.2019 31.0391 38.6788 30.4821 40.3004 30.4821C41.9135 30.4821 43.39 31.0387 44.4886 31.9499C45.6132 32.8764 46.3505 34.1873 46.4387 35.6722C46.524 37.1948 45.8972 38.616 44.8015 39.6686C43.6787 40.7362 42.0898 41.4107 40.3004 41.4107C38.5096 41.4107 36.9136 40.7404 35.7979 39.6686C34.6979 38.6164 34.0725 37.2029 34.1603 35.6792L34.1518 35.6722Z" fill="white"/>
<path d="M23.8032 38.7689C23.8133 39.3836 24.0078 40.5796 24.2966 41.5104C24.907 43.4862 25.943 45.3142 27.3774 46.916C28.8513 48.5692 30.67 49.8985 32.7659 50.8445C34.9695 51.8331 37.3615 52.3393 39.8435 52.3393C42.3255 52.3359 44.7175 51.8209 46.9208 50.8204C49.0167 49.8644 50.8361 48.5366 52.3093 46.8745C53.7513 45.2549 54.784 43.4284 55.3904 41.4512C55.694 40.4691 55.8882 39.4552 55.9691 38.4287C56.0446 37.4327 56.0127 36.4274 55.8737 35.4221C55.602 33.485 54.9322 31.6284 53.9081 29.974C52.9741 28.4374 51.7614 27.1007 50.3194 25.9703L50.3237 25.9688L35.8255 14.6734C35.8125 14.663 35.8009 14.6526 35.7878 14.6438C34.8375 13.9025 33.2318 13.9054 32.1918 14.6467C31.1344 15.3987 31.0125 16.6406 31.9538 17.4223L31.9494 17.4252L38.0027 22.4179L19.5733 22.4368H19.5486C18.0257 22.4383 16.559 23.451 16.2719 24.7373C15.9744 26.041 17.0104 27.1292 18.5986 27.1292L18.5957 27.1351L27.9344 27.1174L11.2245 40.073C11.2042 40.0893 11.181 40.1056 11.1607 40.1219C9.58764 41.3416 9.08 43.3766 10.0706 44.6555C11.0786 45.9596 13.2152 45.9684 14.8049 44.6629L23.8975 37.1057C23.8975 37.1057 23.764 38.1269 23.7756 38.7338L23.8032 38.7689ZM47.2296 42.1825C45.3543 44.1182 42.7243 45.2224 39.89 45.2224C37.0484 45.2268 34.4183 44.1419 32.5427 42.2076C31.6261 41.2601 30.9545 40.1812 30.5368 39.0267C30.1285 37.8906 29.971 36.6766 30.0756 35.4713C30.1749 34.2953 30.5186 33.1544 31.0836 32.1245C31.6305 31.1196 32.3863 30.2065 33.3116 29.4337C35.1379 27.9312 37.4555 27.1085 39.8794 27.1085C42.3139 27.1055 44.6318 27.9134 46.4581 29.4175C47.3834 30.1858 48.1364 31.0944 48.6861 32.0993C49.2524 33.1291 49.5957 34.2709 49.6927 35.4476C49.7959 36.6524 49.6384 37.8656 49.2315 39.0015C48.8153 40.1649 48.1422 41.2438 47.2238 42.1913L47.2296 42.1825Z" fill="white"/>
</svg>
