<svg width="64" height="64" viewBox="0 0 64 64" fill="none" xmlns="http://www.w3.org/2000/svg">
<path d="M22.295 2.105C15.9004 4.32334 10.3857 8.53383 6.56096 14.118C2.7362 19.7022 0.80296 26.3657 1.04521 33.1298C1.28747 39.8939 3.69244 46.4021 7.90689 51.6983C12.1213 56.9946 17.9231 60.7998 24.46 62.555C29.7596 63.9225 35.312 63.9825 40.64 62.73C45.4666 61.6458 49.9289 59.3268 53.59 56C57.4004 52.4317 60.1662 47.8924 61.59 42.87C63.1376 37.4083 63.413 31.6647 62.395 26.08H32.635V38.425H49.87C49.5255 40.3939 48.7874 42.2731 47.6998 43.9502C46.6121 45.6272 45.1973 47.0675 43.54 48.185C41.4354 49.5772 39.063 50.5139 36.575 50.935C34.0797 51.399 31.5203 51.399 29.025 50.935C26.4959 50.4121 24.1035 49.3683 22 47.87C18.6207 45.4779 16.0834 42.0796 14.75 38.16C13.3941 34.167 13.3941 29.838 14.75 25.845C15.6991 23.0461 17.2682 20.4977 19.34 18.39C21.711 15.9337 24.7127 14.178 28.0158 13.3154C31.3189 12.4528 34.7958 12.5167 38.065 13.5C40.6188 14.284 42.9542 15.6537 44.885 17.5C46.8283 15.5667 48.7683 13.6283 50.705 11.685C51.705 10.64 52.795 9.645 53.78 8.575C50.8328 5.83238 47.3734 3.69828 43.6 2.295C36.7285 -0.200053 29.2099 -0.267105 22.295 2.105Z" fill="white"/>
<path d="M22.295 2.105C29.2093 -0.268713 36.7279 -0.203426 43.6 2.29C47.3741 3.70282 50.8319 5.84719 53.775 8.6C52.775 9.67 51.72 10.67 50.7 11.71C48.76 13.6467 46.8217 15.5767 44.885 17.5C42.9542 15.6537 40.6188 14.284 38.065 13.5C34.7969 12.5132 31.3201 12.4456 28.0161 13.3047C24.7121 14.1638 21.7086 15.9163 19.335 18.37C17.2632 20.4777 15.6941 23.0261 14.745 25.825L4.38 17.8C8.09005 10.4428 14.5138 4.81512 22.295 2.105Z" fill="#E33629"/>
<path d="M1.63 25.75C2.1871 22.989 3.11201 20.3151 4.38 17.8L14.745 25.845C13.3891 29.838 13.3891 34.167 14.745 38.16C11.2917 40.8267 7.83666 43.5067 4.38 46.2C1.20575 39.8816 0.237659 32.6825 1.63 25.75Z" fill="#F8BD00"/>
<path d="M32.635 26.075H62.395C63.413 31.6597 63.1376 37.4033 61.59 42.865C60.1662 47.8874 57.4004 52.4267 53.59 55.995C50.245 53.385 46.885 50.795 43.54 48.185C45.1984 47.0664 46.6138 45.6245 47.7015 43.9457C48.7893 42.2668 49.5268 40.3857 49.87 38.415H32.635C32.63 34.305 32.635 30.19 32.635 26.075Z" fill="#587DBD"/>
<path d="M4.375 46.2C7.83167 43.5333 11.2867 40.8533 14.74 38.16C16.076 42.081 18.617 45.4795 22 47.87C24.11 49.3613 26.5077 50.3967 29.04 50.91C31.5353 51.374 34.0947 51.374 36.59 50.91C39.078 50.4889 41.4504 49.5522 43.555 48.16C46.9 50.77 50.26 53.36 53.605 55.97C49.9445 59.2986 45.4821 61.6194 40.655 62.705C35.327 63.9575 29.7746 63.8975 24.475 62.53C20.2835 61.4109 16.3684 59.438 12.975 56.735C9.38331 53.8834 6.44978 50.2899 4.375 46.2Z" fill="#319F43"/>
</svg>
