<svg width="64" height="64" viewBox="0 0 64 64" fill="none" xmlns="http://www.w3.org/2000/svg">
<path d="M64 43C64 49.075 60.627 54 54 54H10C3.373 54 0 49.075 0 43V21C0 14.925 3.373 10 10 10H54C60.627 10 64 14.925 64 21V43Z" fill="#128807"/>
<path d="M57.14 32.79L32.15 50.35L7.159 32.79L32.15 15.23L57.14 32.79Z" fill="#F9CB38"/>
<path fill-rule="evenodd" clip-rule="evenodd" d="M42.01 35.848C40.872 39.715 37.311 42.659 33.279 43.059C27.892 43.598 23.179 40.174 22.033 34.881C21.6938 33.3256 21.737 31.7111 22.159 30.176C22.316 30.006 22.533 29.965 22.749 29.935C24.3245 29.7148 25.9173 29.6455 27.506 29.728C29.201 29.824 30.882 30.059 32.516 30.521C34.193 30.996 35.817 31.616 37.35 32.44C38.5039 33.0525 39.6059 33.7582 40.645 34.55C40.997 34.823 41.356 35.091 41.694 35.382C41.845 35.512 41.964 35.652 42.01 35.848Z" fill="#002776"/>
<path fill-rule="evenodd" clip-rule="evenodd" d="M22.724 28.611C24.015 25.726 26.192 23.805 29.201 22.903C35.261 21.086 41.478 25.091 42.379 31.337C42.519 32.302 42.525 33.27 42.377 34.237C42.224 34.294 42.11 34.213 42.005 34.126C40.9067 33.2286 39.7349 32.4251 38.502 31.724C37.5527 31.1852 36.5662 30.7147 35.55 30.316C35.37 30.245 35.144 30.208 35.082 29.967C35.147 29.851 35.229 29.75 35.327 29.656C35.362 29.62 35.413 29.585 35.366 29.525C35.35 29.506 35.317 29.506 35.289 29.509C35.214 29.517 35.224 29.569 35.227 29.624C35.233 29.803 35.129 29.918 34.992 30.01C34.749 30.065 34.516 29.992 34.319 29.887C33.755 29.591 33.131 29.49 32.534 29.325C31.603 29.072 30.647 28.929 29.693 28.78C28.9316 28.6587 28.1652 28.5712 27.396 28.518C26.696 28.469 25.983 28.476 25.278 28.524C24.509 28.578 23.738 28.632 22.973 28.724C22.925 28.7314 22.8759 28.7246 22.8317 28.7046C22.7875 28.6845 22.75 28.652 22.724 28.611Z" fill="#002776"/>
<path fill-rule="evenodd" clip-rule="evenodd" d="M35.09 29.905C35.086 30.027 35.195 30.011 35.261 30.037C37.8434 31.0414 40.2449 32.46 42.371 34.237C42.31 34.7857 42.1886 35.326 42.009 35.848C40.758 34.81 39.477 33.821 38.06 33.013C33.581 30.462 28.785 29.451 23.658 29.993C23.158 30.044 22.658 30.112 22.158 30.173C22.287 29.632 22.451 29.101 22.72 28.609C26.463 28.104 30.141 28.391 33.75 29.508C34.198 29.647 34.625 29.871 35.103 29.913L35.09 29.902" fill="#FEFEFE"/>
<path fill-rule="evenodd" clip-rule="evenodd" d="M39.75 36.35C39.449 36.318 39.776 36.687 39.472 36.679C39.207 36.675 39.193 36.463 39.063 36.345C39.163 36.241 39.34 36.22 39.396 36.058C39.434 36.229 39.595 36.265 39.75 36.35Z" fill="#D9DFEA"/>
<path fill-rule="evenodd" clip-rule="evenodd" d="M28.394 38.2C28.111 38.233 28.348 38.541 28.111 38.546C27.872 38.551 27.749 38.374 27.701 38.191C27.684 38.139 27.914 38.023 28.027 37.937C28.041 38.118 28.229 38.11 28.394 38.2Z" fill="#E9ECF3"/>
<path fill-rule="evenodd" clip-rule="evenodd" d="M32.14 37.643C31.747 37.897 32.064 37.323 31.833 37.379C31.908 37.259 32.12 37.287 32.134 37.103C32.234 37.207 32.319 37.327 32.478 37.349C32.251 37.318 32.498 37.822 32.14 37.643Z" fill="#EDEFF5"/>
<path fill-rule="evenodd" clip-rule="evenodd" d="M24.02 30.905C23.926 31.084 23.855 31.284 23.57 31.164C23.424 31.103 23.58 30.903 23.405 30.884L23.729 30.599L23.799 30.738C23.825 30.857 24.062 30.699 24.02 30.905Z" fill="#F0F2F6"/>
<path fill-rule="evenodd" clip-rule="evenodd" d="M24.927 35.25C24.778 35.297 24.885 35.689 24.565 35.518C24.533 35.502 24.393 35.579 24.419 35.534C24.503 35.37 24.315 35.29 24.344 35.159C24.519 35.235 24.509 34.915 24.688 35.001C24.701 35.011 24.701 35.051 24.71 35.077C24.729 35.201 24.971 35.046 24.927 35.25Z" fill="#ECEFF4"/>
<path fill-rule="evenodd" clip-rule="evenodd" d="M23.354 36.408C23.047 36.515 23.276 36.144 23.1 36.147C23.182 36.078 23.274 35.949 23.356 35.954C23.454 35.959 23.544 36.08 23.634 36.149C23.5 36.194 23.641 36.557 23.354 36.408Z" fill="#D9DFEA"/>
<path fill-rule="evenodd" clip-rule="evenodd" d="M35.22 39.947C34.895 40.095 35.211 39.658 34.994 39.715C34.972 39.548 35.243 39.649 35.209 39.473L35.502 39.708C35.383 39.762 35.502 40.102 35.22 39.947Z" fill="#D8DEEA"/>
<path fill-rule="evenodd" clip-rule="evenodd" d="M37.3 39.706C37.031 39.818 37.196 39.456 37.051 39.42C37.149 39.357 37.252 39.29 37.348 39.225C37.356 39.373 37.559 39.319 37.581 39.45C37.43 39.459 37.587 39.785 37.3 39.706ZM39.17 38.36C38.864 38.515 39.09 38.108 38.915 38.125C38.95 37.995 39.151 38.044 39.163 37.894L39.45 38.109C39.275 38.104 39.49 38.533 39.17 38.36Z" fill="#DCE1EC"/>
<path fill-rule="evenodd" clip-rule="evenodd" d="M26.783 36.493C26.463 36.674 26.672 36.269 26.524 36.261C26.539 36.112 26.765 36.176 26.775 36.018C26.805 36.164 26.999 36.122 27.041 36.253C26.85 36.225 27.122 36.684 26.783 36.493Z" fill="#D4DAE7"/>
<path fill-rule="evenodd" clip-rule="evenodd" d="M28.08 33.455C27.899 33.443 28.131 33.158 27.909 33.176C27.947 33.016 28.118 33.049 28.212 32.966C28.26 33.067 28.396 33.09 28.403 33.235C28.419 33.5 28.184 33.363 28.08 33.455Z" fill="#F2F4F7"/>
<path fill-rule="evenodd" clip-rule="evenodd" d="M33.35 35.567C33.073 35.726 33.219 35.371 33.091 35.332L33.35 35.113C33.356 35.261 33.639 35.228 33.559 35.342C33.511 35.41 33.666 35.721 33.35 35.567Z" fill="#E6E9F1"/>
<path fill-rule="evenodd" clip-rule="evenodd" d="M32.11 34.676C31.794 34.708 32.12 34.421 31.915 34.428C31.995 34.353 32.072 34.225 32.162 34.217C32.24 34.209 32.33 34.336 32.415 34.406C32.304 34.513 32.321 34.789 32.11 34.676Z" fill="#EAEDF3"/>
<path fill-rule="evenodd" clip-rule="evenodd" d="M39.782 37.01C39.847 37.182 39.975 37.205 40.075 37.266C39.973 37.381 39.933 37.557 39.721 37.557C39.504 37.559 39.651 37.394 39.602 37.317C39.481 37.125 39.928 37.287 39.782 37.01Z" fill="#E4E8F0"/>
<path fill-rule="evenodd" clip-rule="evenodd" d="M37.518 40.494C37.442 40.607 37.494 40.715 37.292 40.719C37.061 40.723 37.135 40.554 37.125 40.502C37.106 40.416 37.238 40.334 37.314 40.351C37.38 40.363 37.508 40.4 37.518 40.494Z" fill="#CED5E4"/>
<path fill-rule="evenodd" clip-rule="evenodd" d="M26.714 37.29C26.549 37.309 26.686 37.525 26.477 37.518C26.286 37.512 26.314 37.383 26.293 37.305C26.26 37.196 26.421 37.199 26.457 37.117C26.533 37.17 26.61 37.223 26.714 37.29Z" fill="#DAE0EB"/>
<path fill-rule="evenodd" clip-rule="evenodd" d="M37.07 38.432C37.1406 38.38 37.213 38.3293 37.287 38.28C37.293 38.391 37.532 38.327 37.452 38.469C37.419 38.526 37.5 38.682 37.293 38.668C37.107 38.655 37.151 38.525 37.07 38.432Z" fill="#D8DEE9"/>
<path fill-rule="evenodd" clip-rule="evenodd" d="M36.31 38.775C36.274 38.972 36.162 39.004 36.039 39.027C35.83 39.062 35.987 38.905 35.953 38.845C35.865 38.695 36.087 38.724 36.113 38.626C36.171 38.702 36.304 38.7 36.31 38.775Z" fill="#CBD2E3"/>
<path fill-rule="evenodd" clip-rule="evenodd" d="M35.14 32.29C35.07 32.323 35.163 32.49 35.013 32.442C34.899 32.403 34.759 32.349 34.769 32.209C34.773 32.155 34.909 32.11 34.985 32.063C34.998 32.164 35.214 32.131 35.14 32.29Z" fill="#D1D8E6"/>
<path fill-rule="evenodd" clip-rule="evenodd" d="M40.799 36.676C40.611 36.75 40.696 36.595 40.663 36.55C40.537 36.379 40.786 36.404 40.799 36.302C40.876 36.353 41.026 36.411 41.02 36.455C41.0156 36.5122 40.9909 36.5659 40.9504 36.6064C40.9099 36.6469 40.8562 36.6716 40.799 36.676Z" fill="#DADFEA"/>
<path fill-rule="evenodd" clip-rule="evenodd" d="M31.13 35.15C31.13 35.266 31.364 35.22 31.285 35.365C31.253 35.424 31.321 35.582 31.159 35.549C31.036 35.524 30.912 35.452 30.908 35.33C30.908 35.273 31.05 35.212 31.13 35.15Z" fill="#CAD2E2"/>
<path fill-rule="evenodd" clip-rule="evenodd" d="M34.33 38.768C34.238 38.725 34.234 38.604 34.24 38.546C34.25 38.469 34.353 38.365 34.441 38.407C34.495 38.433 34.648 38.418 34.611 38.558C34.577 38.692 34.443 38.711 34.33 38.768Z" fill="#D0D7E5"/>
<path fill-rule="evenodd" clip-rule="evenodd" d="M38.2 38.592C38.204 38.591 38.274 38.494 38.353 38.492C38.41 38.49 38.468 38.608 38.529 38.674C38.447 38.697 38.517 38.848 38.355 38.846C38.209 38.843 38.209 38.777 38.2 38.592Z" fill="#EFF2F6"/>
<path fill-rule="evenodd" clip-rule="evenodd" d="M31.766 36.06C31.739 36.168 31.739 36.235 31.643 36.233C31.545 36.231 31.497 36.195 31.499 36.095C31.499 36.016 31.551 35.961 31.61 35.966C31.678 35.971 31.775 35.99 31.766 36.06Z" fill="#CCD4E3"/>
<path fill-rule="evenodd" clip-rule="evenodd" d="M25.634 34.504C25.682 34.556 25.737 34.597 25.758 34.65C25.776 34.694 25.748 34.761 25.686 34.768C25.617 34.774 25.543 34.772 25.521 34.686C25.501 34.602 25.574 34.572 25.634 34.504Z" fill="#E0E5EE"/>
<path fill-rule="evenodd" clip-rule="evenodd" d="M24.927 35.25C24.9 35.135 24.722 35.208 24.71 35.076C24.748 35.176 25.045 34.953 24.927 35.25Z" fill="#7085B1"/>
<path fill-rule="evenodd" clip-rule="evenodd" d="M24.02 30.905C23.998 30.782 23.809 30.879 23.799 30.738C23.852 30.822 24.12 30.623 24.02 30.905Z" fill="#5C75A7"/>
<path fill-rule="evenodd" clip-rule="evenodd" d="M35.11 29.916C35.129 29.84 35.19 29.716 35.166 29.693C34.84 29.403 35.275 29.354 35.34 29.295C35.459 29.18 35.44 29.665 35.754 29.358C35.585 29.733 35.359 29.841 35.099 29.905L35.11 29.916Z" fill="#E7EAF2"/>
<path fill-rule="evenodd" clip-rule="evenodd" d="M25.471 29.605C25.153 29.574 25.436 29.16 25.367 28.92C25.281 28.61 25.507 28.614 25.727 28.613C26.068 28.611 26.261 28.755 26.261 29.115C26.26 29.469 26.096 29.609 25.471 29.605Z" fill="#15A24A"/>
<path fill-rule="evenodd" clip-rule="evenodd" d="M37.621 31.603C37.551 31.817 37.292 31.951 37.248 32.215C37.244 32.25 37.144 32.243 37.125 32.141C37.045 31.663 37.041 31.664 36.688 31.92C36.66 31.941 36.611 31.96 36.584 31.951C36.532 31.928 36.511 31.876 36.542 31.817C36.659 31.589 36.769 31.355 36.9 31.134C36.988 30.988 37.095 31.11 37.181 31.152C37.37 31.245 37.603 31.298 37.621 31.603Z" fill="#13A248"/>
<path fill-rule="evenodd" clip-rule="evenodd" d="M38.516 32.381C38.332 32.455 38.243 32.316 38.125 32.266C38.045 32.232 37.97 32.2 37.916 32.289C37.857 32.383 37.916 32.437 37.997 32.479C38.059 32.51 38.125 32.534 38.171 32.583C38.252 32.668 38.506 32.645 38.403 32.826C38.322 32.97 38.186 32.802 38.096 32.749C37.941 32.654 37.634 32.602 37.667 32.437C37.718 32.172 37.869 31.884 38.07 31.702C38.231 31.556 38.409 31.832 38.59 31.901C38.668 31.93 38.801 31.956 38.778 32.079C38.756 32.206 38.662 32.132 38.59 32.115C38.421 32.076 38.257 31.79 38.124 31.988C38.044 32.106 38.373 32.155 38.477 32.285C38.493 32.304 38.497 32.33 38.516 32.381ZM40.671 33.795C40.701 34.029 40.606 34.188 40.361 34.148C40.107 34.106 39.914 33.951 39.87 33.673C39.866 33.645 39.9 33.588 39.928 33.58C39.9441 33.5747 39.9612 33.573 39.978 33.5751C39.9948 33.5771 40.011 33.5828 40.0254 33.5917C40.0398 33.6007 40.0521 33.6127 40.0613 33.6269C40.0706 33.6411 40.0766 33.6572 40.079 33.674C40.111 33.865 40.211 33.95 40.412 33.954C40.451 33.641 39.886 33.498 40.211 33.173C40.374 33.01 40.573 33.145 40.715 33.276C40.846 33.395 41.006 33.526 40.767 33.696C40.733 33.678 40.687 33.649 40.662 33.669C40.611 33.703 40.661 33.752 40.671 33.795Z" fill="#11A147"/>
<path fill-rule="evenodd" clip-rule="evenodd" d="M33.764 30.817C33.645 30.75 33.651 30.686 33.67 30.616C33.708 30.467 33.631 30.389 33.495 30.347C33.359 30.303 33.254 30.309 33.217 30.479C33.204 30.555 33.164 30.608 33.081 30.58C32.985 30.545 33.033 30.467 33.051 30.41C33.089 30.279 33.123 30.147 33.183 30.022C33.237 29.897 33.199 29.668 33.396 29.683C33.605 29.698 33.831 29.748 33.99 29.921C34.061 29.997 34.09 30.128 34.032 30.185C33.863 30.359 33.877 30.605 33.764 30.817Z" fill="#0FA046"/>
<path fill-rule="evenodd" clip-rule="evenodd" d="M27.593 29.544C27.27 29.666 27.015 29.595 26.766 29.6C26.653 29.603 26.643 29.518 26.643 29.432C26.6496 29.3367 26.6523 29.2413 26.651 29.146C26.663 28.619 26.85 28.484 27.368 28.631C27.426 28.647 27.481 28.657 27.485 28.722C27.485 28.812 27.42 28.828 27.34 28.826C27.3286 28.8233 27.316 28.8223 27.302 28.823C27.147 28.861 26.869 28.686 26.864 28.918C26.858 29.096 27.161 28.97 27.316 29.03C27.3366 29.04 27.3633 29.058 27.396 29.084C27.298 29.261 27.135 29.162 27.009 29.183C26.934 29.195 26.836 29.162 26.825 29.284C26.811 29.428 26.911 29.421 27.009 29.431C27.176 29.451 27.357 29.388 27.593 29.544Z" fill="#0B9F43"/>
<path fill-rule="evenodd" clip-rule="evenodd" d="M24.938 29.62C24.764 29.582 24.788 29.482 24.758 29.412C24.706 29.283 24.603 29.283 24.49 29.292C24.361 29.304 24.291 29.354 24.302 29.497C24.31 29.567 24.338 29.68 24.208 29.664C24.096 29.65 24.128 29.541 24.122 29.467C24.112 29.346 24.1 29.222 24.112 29.102C24.128 28.968 24 28.763 24.193 28.715C24.392 28.663 24.622 28.626 24.829 28.725C24.919 28.768 24.99 28.873 24.957 28.958C24.881 29.172 24.941 29.389 24.938 29.62Z" fill="#079D3F"/>
<path fill-rule="evenodd" clip-rule="evenodd" d="M22.827 29.28C22.859 29.009 22.978 28.789 23.275 28.799C23.56 28.808 23.712 29.006 23.712 29.291C23.712 29.574 23.58 29.769 23.279 29.767C22.973 29.765 22.869 29.543 22.827 29.28Z" fill="#15A24A"/>
<path fill-rule="evenodd" clip-rule="evenodd" d="M41.864 34.36C41.836 34.629 41.703 34.832 41.396 34.859C41.113 34.882 40.963 34.72 40.941 34.454C40.916 34.185 41.18 33.928 41.449 33.93C41.685 33.932 41.858 34.103 41.864 34.36Z" fill="#11A147"/>
<path fill-rule="evenodd" clip-rule="evenodd" d="M36.25 31.23C36.476 31.412 36.202 31.532 36.192 31.685C36.004 31.598 35.769 31.633 35.617 31.468C35.455 31.292 35.485 31.093 35.591 30.899C35.708 30.694 35.888 30.606 36.109 30.684C36.311 30.756 36.462 30.892 36.364 31.148C36.209 31.176 36.082 30.972 35.864 31.109C36.009 31.176 36.183 31.083 36.25 31.23Z" fill="#0C9F43"/>
<path fill-rule="evenodd" clip-rule="evenodd" d="M30.81 29.17C30.678 29.325 30.581 29.265 30.49 29.267C30.402 29.267 30.308 29.194 30.199 29.285C30.297 29.445 30.534 29.342 30.626 29.501C30.613 29.524 30.607 29.555 30.59 29.571C30.458 29.675 30.247 29.423 30.165 29.631C30.09 29.81 30.287 29.748 30.372 29.778C30.468 29.816 30.587 29.802 30.703 29.932C30.434 30.05 30.113 29.995 30.002 29.865C29.827 29.66 29.95 29.296 30.083 29.114C30.24 28.899 30.527 29.109 30.81 29.17Z" fill="#19A44D"/>
<path fill-rule="evenodd" clip-rule="evenodd" d="M32.515 30.04C32.288 30.016 32.03 29.856 31.965 30.23C31.963 30.242 31.884 30.259 31.86 30.243C31.833 30.228 31.818 30.172 31.823 30.14C31.882 29.903 31.912 29.649 32.017 29.436C32.139 29.196 32.346 29.399 32.517 29.422C32.721 29.449 32.834 29.573 32.812 29.788C32.792 29.973 32.652 30.023 32.515 30.04Z" fill="#0D9F44"/>
<path fill-rule="evenodd" clip-rule="evenodd" d="M35.22 30.613C35.198 30.914 35.05 31.122 34.749 31.131C34.48 31.141 34.329 30.952 34.335 30.684C34.343 30.394 34.484 30.184 34.797 30.175C35.084 30.165 35.195 30.358 35.22 30.613Z" fill="#0FA046"/>
<path fill-rule="evenodd" clip-rule="evenodd" d="M28.479 29.527C28.446 29.598 28.419 29.699 28.324 29.676C28.159 29.637 28.233 29.478 28.193 29.374C28.071 29.255 28.103 29.419 28.065 29.449C28.051 29.523 28.085 29.636 27.985 29.651C27.862 29.666 27.891 29.548 27.894 29.478C27.904 29.332 27.906 29.179 27.946 29.039C27.981 28.919 27.854 28.698 28.093 28.696C28.304 28.695 28.258 28.91 28.285 29.039C28.313 29.187 28.328 29.25 28.449 29.103C28.574 29.07 28.6 29.161 28.629 29.249C28.645 29.377 28.588 29.466 28.479 29.527Z" fill="#0EA044"/>
<path fill-rule="evenodd" clip-rule="evenodd" d="M39.13 33.2C39.204 33.2 39.279 33.298 39.351 33.214C39.406 33.151 39.357 33.089 39.308 33.038C39.2707 33 39.2347 32.9607 39.2 32.92C39.098 32.797 38.955 32.679 39.096 32.501C39.224 32.338 39.373 32.378 39.521 32.481C39.548 32.533 39.539 32.583 39.511 32.63C39.402 32.801 39.605 32.905 39.601 33.051C39.632 33.188 39.652 33.326 39.501 33.405C39.313 33.505 39.168 33.413 39.03 33.293C39.015 33.214 39.044 33.175 39.13 33.2Z" fill="#10A146"/>
<path fill-rule="evenodd" clip-rule="evenodd" d="M36.25 31.23C36.173 31.284 36.018 31.109 36.023 31.241C36.033 31.475 35.916 31.454 35.807 31.385C35.66 31.294 35.652 31.138 35.745 30.994C35.835 30.853 35.962 30.771 36.116 30.886C36.21 30.955 36.281 31.059 36.362 31.148L36.25 31.23Z" fill="#ECF7F0"/>
<path fill-rule="evenodd" clip-rule="evenodd" d="M28.545 29.29C28.5161 29.2281 28.484 29.1677 28.449 29.109C28.484 29.02 28.516 28.93 28.558 28.844C28.596 28.763 28.662 28.718 28.755 28.748C28.859 28.783 28.851 28.863 28.845 28.947C28.823 29.1917 28.8026 29.4363 28.784 29.681C28.638 29.774 28.601 29.689 28.577 29.563C28.559 29.472 28.606 29.374 28.545 29.29Z" fill="#17A34C"/>
<path fill-rule="evenodd" clip-rule="evenodd" d="M39.604 33.05C39.514 32.958 39.418 32.871 39.334 32.773C39.236 32.657 39.274 32.586 39.42 32.567C39.631 32.614 39.76 32.716 39.698 32.958C39.6687 32.9887 39.6373 33.0193 39.604 33.05Z" fill="#D7EFE0"/>
<path fill-rule="evenodd" clip-rule="evenodd" d="M39.698 32.958C39.601 32.832 39.575 32.652 39.42 32.567L39.524 32.48C39.692 32.599 39.999 32.667 39.698 32.958Z" fill="#2BAB5B"/>
<path fill-rule="evenodd" clip-rule="evenodd" d="M40.671 33.795C40.658 33.787 40.641 33.783 40.635 33.772C40.555 33.624 40.29 33.491 40.38 33.36C40.493 33.202 40.611 33.389 40.673 33.524C40.701 33.581 40.735 33.637 40.767 33.696C40.7336 33.7293 40.7017 33.7623 40.671 33.795Z" fill="#E6F5EC"/>
<path fill-rule="evenodd" clip-rule="evenodd" d="M39.13 33.2C39.0993 33.2313 39.066 33.2627 39.03 33.294C38.988 33.264 38.93 33.243 38.903 33.2C38.852 33.103 38.706 32.974 38.875 32.898C39.017 32.83 39.017 33.011 39.063 33.099C39.082 33.136 39.106 33.167 39.13 33.2Z" fill="#29AA59"/>
<path fill-rule="evenodd" clip-rule="evenodd" d="M28.545 29.29C28.691 29.347 28.614 29.469 28.616 29.56C28.624 29.685 28.668 29.727 28.785 29.683C28.541 29.919 28.572 29.604 28.478 29.534C28.503 29.451 28.522 29.37 28.545 29.29Z" fill="#DDF1E4"/>
<path fill-rule="evenodd" clip-rule="evenodd" d="M28.06 29.45V29.128C28.198 29.172 28.202 29.269 28.188 29.375L28.06 29.45Z" fill="#6FC690"/>
<path fill-rule="evenodd" clip-rule="evenodd" d="M25.568 29.12C25.582 28.974 25.512 28.784 25.761 28.8C25.943 28.811 26.075 28.884 26.085 29.092C26.095 29.316 25.964 29.407 25.757 29.422C25.494 29.443 25.601 29.236 25.568 29.12Z" fill="#F5FBF7"/>
<path fill-rule="evenodd" clip-rule="evenodd" d="M37.1 31.32C37.204 31.377 37.363 31.388 37.397 31.542C37.414 31.622 37.345 31.675 37.274 31.652C37.142 31.612 36.967 31.61 36.949 31.424C36.944 31.37 37.002 31.302 37.1 31.32Z" fill="#EFF8F3"/>
<path fill-rule="evenodd" clip-rule="evenodd" d="M33.857 30.09C33.83 30.194 33.757 30.23 33.673 30.199C33.56 30.158 33.378 30.203 33.376 30.005C33.372 29.902 33.442 29.871 33.536 29.902C33.66 29.942 33.81 29.937 33.857 30.09Z" fill="#DEF2E5"/>
<path fill-rule="evenodd" clip-rule="evenodd" d="M24.515 28.859C24.613 28.871 24.768 28.819 24.758 28.986C24.748 29.132 24.6 29.109 24.494 29.111C24.409 29.114 24.287 29.158 24.279 29.005C24.273 28.823 24.415 28.88 24.515 28.859Z" fill="#F3FAF5"/>
<path fill-rule="evenodd" clip-rule="evenodd" d="M23.25 28.998C23.431 29.01 23.521 29.118 23.528 29.288C23.538 29.44 23.463 29.57 23.307 29.584C23.127 29.601 23.046 29.464 23.036 29.297C23.026 29.143 23.086 29.031 23.25 28.998Z" fill="#F3FAF6"/>
<path fill-rule="evenodd" clip-rule="evenodd" d="M41.665 34.395C41.639 34.561 41.539 34.678 41.346 34.678C41.191 34.676 41.133 34.563 41.149 34.426C41.164 34.24 41.275 34.12 41.464 34.123C41.613 34.127 41.671 34.234 41.665 34.395Z" fill="#F9FCFA"/>
<path fill-rule="evenodd" clip-rule="evenodd" d="M32.28 29.548C32.381 29.61 32.584 29.546 32.613 29.746C32.622 29.822 32.538 29.861 32.471 29.846C32.34 29.817 32.157 29.864 32.141 29.653C32.138 29.588 32.167 29.518 32.28 29.548Z" fill="#E7F5EC"/>
<path fill-rule="evenodd" clip-rule="evenodd" d="M35.02 30.637C35.001 30.81 34.916 30.931 34.741 30.931C34.569 30.933 34.508 30.813 34.516 30.655C34.53 30.481 34.629 30.365 34.798 30.358C34.966 30.352 35.02 30.486 35.02 30.637Z" fill="#F5FBF7"/>
</svg>
