<svg width="66" height="66" viewBox="0 0 66 66" fill="none" xmlns="http://www.w3.org/2000/svg">
<path d="M26.8091 55.582C30.9677 55.582 34.3225 52.2272 34.3225 48.0686V40.5552H26.8091C22.6506 40.5552 19.2957 43.9101 19.2957 48.0686C19.2957 52.2272 22.6506 55.582 26.8091 55.582Z" fill="white"/>
<path d="M19.2957 33.0419C19.2957 28.8833 22.6506 25.5285 26.8091 25.5285H34.3225V40.5552H26.8091C22.6506 40.5552 19.2957 37.2004 19.2957 33.0419Z" fill="white"/>
<path d="M19.2957 18.0151C19.2957 13.8565 22.6506 10.5017 26.8091 10.5017H34.3225V25.5285H26.8091C22.6506 25.5285 19.2957 22.1736 19.2957 18.0151Z" fill="white"/>
<path d="M34.3225 10.5017H41.8359C45.9945 10.5017 49.3493 13.8565 49.3493 18.0151C49.3493 22.1736 45.9945 25.5285 41.8359 25.5285H34.3225V10.5017Z" fill="white"/>
<path d="M49.3493 33.0419C49.3493 37.2004 45.9945 40.5552 41.8359 40.5552C37.6774 40.5552 34.3225 37.2004 34.3225 33.0419C34.3225 28.8833 37.6774 25.5285 41.8359 25.5285C45.9945 25.5285 49.3493 28.8833 49.3493 33.0419Z" fill="white"/>
</svg>
