<svg width="66" height="66" viewBox="0 0 66 66" fill="none" xmlns="http://www.w3.org/2000/svg">
<path d="M31.8349 39.0867H21.6406L19.5915 45.4902C19.5403 45.7463 19.3354 45.9 19.0792 45.8488H13.9565C13.6491 45.8488 13.5979 45.6951 13.6491 45.3365L22.4603 20.03C22.5627 19.7739 22.614 19.4665 22.7164 19.1079C22.8189 18.5444 22.8701 17.9297 22.8701 17.315C22.8189 17.1613 22.9725 17.0588 23.075 17.0076H30.1444C30.3493 17.0076 30.4518 17.1101 30.503 17.2125L40.4924 45.3365C40.5949 45.6439 40.4924 45.7976 40.2363 45.7976H34.4988C34.2939 45.8488 34.1402 45.6951 34.0377 45.4902L31.8349 39.0867ZM23.2287 33.5029H30.1444C29.9907 32.9394 29.7858 32.2222 29.5297 31.5563C29.2736 30.8391 29.0174 30.0194 28.8125 29.1998C28.5564 28.3289 28.3002 27.5093 28.0441 26.6896C27.788 25.8188 27.5318 25.0503 27.3269 24.2819C27.122 23.5135 26.9171 22.7963 26.7122 22.1304H26.6609C26.4048 23.3086 26.0974 24.4868 25.7388 25.6651C25.329 26.997 24.9192 28.3289 24.4582 29.7121C24.0483 31.0952 23.6385 32.3759 23.2287 33.5029ZM46.5885 21.8742C45.6664 21.9255 44.7955 21.5669 44.1808 20.9009C43.5661 20.2349 43.2075 19.3128 43.2587 18.3907C43.2075 17.4686 43.5661 16.5978 44.232 15.983C44.898 15.3683 45.7689 15.0097 46.6397 15.0097C47.7155 15.0097 48.5352 15.3171 49.1499 15.983C49.7646 16.649 50.072 17.5199 50.072 18.3907C50.1232 19.3128 49.7646 20.2349 49.0987 20.9009C48.4327 21.5669 47.5106 21.9255 46.5885 21.8742ZM43.5148 45.5926V24.5381C43.5148 24.2819 43.6173 24.1795 43.8734 24.1795H49.3036C49.5597 24.1795 49.6622 24.3332 49.6622 24.5381V45.5926C49.6622 45.9 49.5597 46.0537 49.3036 46.0537H43.9247C43.6685 46.0025 43.5148 45.8488 43.5148 45.5926Z" fill="white"/>
</svg>
