<svg width="66" height="66" viewBox="0 0 66 66" fill="none" xmlns="http://www.w3.org/2000/svg">
<path d="M23.8269 17.0757C23.0073 17.0757 22.1877 17.0757 21.3409 17.1034C20.4936 17.1305 19.7011 17.1305 18.9634 17.1582C18.2257 17.1854 17.5428 17.1854 16.8871 17.2125C16.2586 17.2397 15.8216 17.2397 15.357 17.2397C15.1659 17.2397 15.0839 17.3488 15.0839 17.5404V45.6541C15.0839 45.9 15.193 46.0096 15.4118 46.0096H20.7123C20.9034 45.982 21.0402 45.818 21.0125 45.627V36.8568C21.5314 36.8568 21.9141 36.8568 22.1877 36.8839C22.4607 36.9111 22.8977 36.9111 23.5534 36.9111C25.7941 36.9111 27.8432 36.6652 29.7007 35.9823C31.4768 35.3266 33.0069 34.1791 34.0996 32.6489C35.1925 31.1189 35.7389 29.1791 35.7389 26.8295C35.7389 25.6 35.5207 24.4254 35.1109 23.2779C34.6766 22.1088 33.9963 21.0466 33.1161 20.1632C32.0771 19.1539 30.8264 18.3884 29.4548 17.9225C27.9246 17.3488 26.0671 17.0757 23.8269 17.0757ZM24.4365 22.4572C25.4099 22.4756 26.3576 22.6457 27.2418 23.0043C28.0343 23.305 28.69 23.8516 29.1546 24.5616C29.5904 25.2965 29.8084 26.14 29.7832 26.9939C29.7832 28.1957 29.5096 29.125 28.9359 29.8079C28.3345 30.4907 27.5696 31.0102 26.6957 31.2561C25.6845 31.5839 24.6189 31.7473 23.5534 31.7473H22.1052C21.7773 31.7473 21.4228 31.7202 21.0401 31.693V22.513C21.2312 22.4854 21.6139 22.4582 22.1605 22.4859C22.6794 22.4582 23.3075 22.4582 24.018 22.4582C24.158 22.4548 24.2975 22.4545 24.4365 22.4572ZM47.3507 23.8521C45.4107 23.8521 43.7986 24.1523 42.5148 24.808C41.3401 25.3546 40.3289 26.2286 39.646 27.3213C39.0451 28.3325 38.7168 29.4523 38.7168 30.6275C38.6934 31.594 38.9093 32.5514 39.3453 33.4143C39.8563 34.3331 40.5658 35.1264 41.4221 35.7364C42.624 36.5585 43.9282 37.2198 45.3016 37.7036C46.6402 38.2225 47.5418 38.6323 47.9793 38.9873C48.4162 39.3429 48.635 39.6979 48.635 40.0805C48.635 40.5723 48.3343 41.037 47.8973 41.228C47.4055 41.4739 46.6678 41.6107 45.6294 41.6107C44.5368 41.6107 43.4436 41.4739 42.4052 41.2009C41.2129 40.9346 40.0698 40.4829 39.0175 39.8623C38.9355 39.8075 38.8536 39.7803 38.7716 39.8352C38.6896 39.8895 38.6625 39.9986 38.6625 40.0805V44.8345C38.6353 45.0532 38.7716 45.2443 38.9632 45.3534C39.8492 45.7673 40.7863 46.0614 41.75 46.2279C42.9794 46.4738 44.2084 46.5829 45.465 46.5829C47.4321 46.5829 49.0719 46.2827 50.4105 45.7089C51.64 45.2171 52.7055 44.3703 53.4703 43.2772C54.1867 42.2024 54.5584 40.9349 54.5359 39.6436C54.5628 38.6681 54.347 37.7011 53.9078 36.8296C53.3884 35.9004 52.6507 35.1355 51.7491 34.5618C50.4301 33.7335 49.0179 33.0639 47.5418 32.567C46.8826 32.2941 46.2353 31.9933 45.6018 31.6654C45.2468 31.4743 44.9189 31.2284 44.673 30.9277C44.5091 30.709 44.4 30.4636 44.4 30.2177C44.4 29.9718 44.4819 29.6987 44.6182 29.48C44.8098 29.207 45.11 29.0154 45.465 28.9334C45.9844 28.7971 46.5582 28.7147 47.1043 28.7418C48.1427 28.7418 49.1534 28.8786 50.1646 29.0973C51.0939 29.2884 51.9678 29.5891 52.7875 30.0266C52.8966 30.0809 53.0334 30.0809 53.2793 30.0266C53.322 29.995 53.3566 29.9537 53.3804 29.9062C53.4041 29.8586 53.4163 29.8062 53.416 29.753V25.2998C53.416 25.1902 53.3884 25.0811 53.3612 24.972C53.3064 24.8628 53.1973 24.7532 53.0882 24.7261C52.3346 24.4181 51.5451 24.2069 50.7384 24.0975C49.6165 23.9342 48.4844 23.8525 47.3507 23.8521Z" fill="white"/>
</svg>
