<svg width="68" height="66" viewBox="0 0 68 66" fill="none" xmlns="http://www.w3.org/2000/svg">
<path d="M16.7114 46.3391V17.5506C16.7114 17.3547 16.7953 17.2429 16.9912 17.2429L17.3972 17.2421L17.7115 17.2395L17.9331 17.2353L18.1691 17.2293L18.4228 17.2204L18.5579 17.2149C18.8096 17.2044 19.0654 17.1978 19.3264 17.1923L20.1276 17.1755C20.2187 17.1734 20.3106 17.171 20.4033 17.1682L20.6839 17.159C20.9357 17.1499 21.1938 17.1429 21.4582 17.138L22.2695 17.1236L22.831 17.1113L23.1182 17.1029C23.6963 17.0845 24.262 17.0782 24.8236 17.0761L25.664 17.0751C27.9582 17.0751 29.8605 17.3547 31.4274 17.9422C32.8318 18.4192 34.1124 19.2029 35.1763 20.2364C36.0776 21.141 36.7741 22.2287 37.2187 23.4258C37.6384 24.6008 37.8621 25.8039 37.8621 27.0629C37.8621 29.4689 37.3025 31.4553 36.1835 33.022C35.0643 34.5887 33.4976 35.7637 31.6792 36.4352C29.8401 37.1113 27.8181 37.3689 25.6131 37.3854H24.8134L24.502 37.3823L24.3024 37.3776L24.1849 37.3726L24.0795 37.3663L23.9853 37.3584C23.9249 37.3526 23.8644 37.348 23.8038 37.3448L23.6674 37.3387L23.5179 37.3348L23.2685 37.3314L22.7825 37.3303V46.311C22.8103 46.5069 22.6705 46.6748 22.4746 46.7029H17.0471C16.8234 46.7029 16.7114 46.5909 16.7114 46.3391ZM22.8103 22.6424V32.0427L23.1392 32.0663C23.3928 32.0857 23.647 32.0966 23.9014 32.0988H25.3844C26.4755 32.0988 27.5666 31.9309 28.6016 31.5952C29.497 31.3434 30.2802 30.8118 30.8958 30.1122C31.4833 29.413 31.7632 28.4617 31.7632 27.2308C31.7894 26.3564 31.5662 25.4927 31.1195 24.7406C30.6639 24.0437 30.0281 23.5008 29.262 23.1858L29.1613 23.1459C28.126 22.7263 27.0069 22.5584 25.8599 22.5865L25.2131 22.5873L24.9091 22.5891L24.6188 22.593L24.3431 22.5993C24.2086 22.6028 24.0801 22.6079 23.9575 22.6145C23.8974 22.6115 23.8373 22.6091 23.7771 22.6072L23.6095 22.6035L23.5308 22.603L23.3823 22.6038L23.2475 22.6075L23.1851 22.6101L23.0705 22.6166L22.9698 22.6245L22.9244 22.6287L22.8449 22.6379L22.8103 22.6424ZM41.7788 24.2651H46.6749C46.939 24.2651 47.1536 24.4398 47.2472 24.6714L47.2624 24.7128C47.3463 24.9366 47.4022 25.1603 47.4303 25.4121C47.4861 25.6919 47.5423 25.9996 47.5701 26.2795L47.5937 26.5501C47.612 26.7812 47.6262 27.027 47.6262 27.2866C48.4275 26.3512 49.3883 25.5654 50.4641 24.9657L50.6197 24.8807C51.9067 24.1531 53.3894 23.7896 54.8721 23.7896C55.068 23.7615 55.2359 23.9013 55.264 24.0972V29.6648C55.264 29.8885 55.1239 29.9724 54.8162 29.9724C53.8762 29.9462 52.912 30.0178 51.9914 30.2093L51.7947 30.2523C50.9834 30.4202 50.2 30.672 49.4446 31.0077C48.913 31.2595 48.4094 31.5952 48.0178 32.0427V46.311C48.0178 46.5909 47.9058 46.7029 47.654 46.7029H42.1426C41.9189 46.7307 41.7229 46.5909 41.6949 46.3671V30.7559C41.6949 30.0844 41.6949 29.3849 41.6671 28.6576L41.6503 28.1121L41.6277 27.0209C41.6235 26.8391 41.6179 26.6572 41.6109 26.4754C41.6109 25.8317 41.5551 25.2164 41.4992 24.5728C41.4711 24.433 41.5551 24.2932 41.6949 24.2651C41.6949 24.2412 41.736 24.2378 41.7654 24.2546L41.7788 24.2651Z" fill="white"/>
</svg>
