<svg width="2001" height="440" viewBox="0 0 2001 440" fill="none" xmlns="http://www.w3.org/2000/svg">
<path d="M1953.05 50.904V18.608H1969.42C1970.73 18.608 1972.16 18.9873 1973.7 19.7458C1975.25 20.4751 1976.56 21.6129 1977.64 23.1592C1978.75 24.6763 1979.31 26.6018 1979.31 28.9357C1979.31 31.2988 1978.74 33.3119 1977.6 34.9748C1976.46 36.6086 1975.08 37.8485 1973.44 38.6945C1971.84 39.5406 1970.32 39.9636 1968.89 39.9636H1957.08V34.7122H1966.7C1967.67 34.7122 1968.7 34.2309 1969.81 33.2681C1970.95 32.3053 1971.52 30.8612 1971.52 28.9357C1971.52 26.9519 1970.95 25.6098 1969.81 24.9096C1968.7 24.2095 1967.72 23.8594 1966.88 23.8594H1960.14V50.904H1953.05ZM1972.57 35.675L1980.62 50.904H1972.83L1964.95 35.675H1972.57ZM1965.3 70.1591C1960.46 70.1591 1955.92 69.2547 1951.69 67.4459C1947.46 65.637 1943.74 63.1281 1940.53 59.9189C1937.32 56.7097 1934.81 52.99 1933.01 48.7597C1931.2 44.5294 1930.29 39.9928 1930.29 35.1499C1930.29 30.3069 1931.2 25.7703 1933.01 21.54C1934.81 17.3097 1937.32 13.59 1940.53 10.3808C1943.74 7.17165 1947.46 4.66265 1951.69 2.85384C1955.92 1.04503 1960.46 0.140625 1965.3 0.140625C1970.15 0.140625 1974.68 1.04503 1978.91 2.85384C1983.14 4.66265 1986.86 7.17165 1990.07 10.3808C1993.28 13.59 1995.79 17.3097 1997.6 21.54C1999.41 25.7703 2000.31 30.3069 2000.31 35.1499C2000.31 39.9928 1999.41 44.5294 1997.6 48.7597C1995.79 52.99 1993.28 56.7097 1990.07 59.9189C1986.86 63.1281 1983.14 65.637 1978.91 67.4459C1974.68 69.2547 1970.15 70.1591 1965.3 70.1591ZM1965.3 61.7569C1970.2 61.7569 1974.67 60.5607 1978.69 58.1684C1982.72 55.7761 1985.93 52.5669 1988.32 48.5409C1990.71 44.5148 1991.91 40.0511 1991.91 35.1499C1991.91 30.2486 1990.71 25.7849 1988.32 21.7588C1985.93 17.7328 1982.72 14.5236 1978.69 12.1313C1974.67 9.73898 1970.2 8.54284 1965.3 8.54284C1960.4 8.54284 1955.94 9.73898 1951.91 12.1313C1947.89 14.5236 1944.68 17.7328 1942.28 21.7588C1939.89 25.7849 1938.7 30.2486 1938.7 35.1499C1938.7 40.0511 1939.89 44.5148 1942.28 48.5409C1944.68 52.5669 1947.89 55.7761 1951.91 58.1684C1955.94 60.5607 1960.4 61.7569 1965.3 61.7569Z" fill="#BFFF38"/>
<path fill-rule="evenodd" clip-rule="evenodd" d="M882.158 0.140625H519.359C499.408 0.140625 483.234 16.314 483.234 36.265V403.067C483.234 423.017 499.408 439.191 519.359 439.191H882.158C902.109 439.191 918.282 423.017 918.282 403.067V36.265C918.282 16.314 902.109 0.140625 882.158 0.140625ZM840.165 225.325C747.24 225.325 714.392 303.987 714.392 351.963H687.594V256.444H687.167C687.167 227.745 662.098 220.282 649.564 220.138H515.578V192.477H561.393C654.318 192.477 687.167 113.814 687.167 65.8384H713.964V161.357H714.392C714.392 190.056 739.46 197.519 751.994 197.663H885.98V225.325H840.165Z" fill="#BFFF38"/>
<path fill-rule="evenodd" clip-rule="evenodd" d="M1362.58 0.140625H1195.1V108.661C1195.1 116.155 1189.34 122.604 1181.86 122.95C1173.87 123.33 1167.27 116.959 1167.27 109.05V0.140625H999.784C979.833 0.140625 963.66 16.314 963.66 36.265V129.476C963.66 148.692 979.237 164.269 998.453 164.269H1133.98V192.104H1086C1073.73 192.104 1061.52 193.953 1049.79 197.584C998.583 213.455 963.669 260.825 963.669 314.437V403.032C963.669 422.983 979.842 439.156 999.793 439.156H1167.28V238.584C1167.28 231.089 1173.03 224.641 1180.52 224.295C1188.51 223.923 1195.11 230.285 1195.11 238.195V439.156H1362.59C1382.54 439.156 1398.72 422.983 1398.72 403.032V314.437C1398.72 260.825 1363.8 213.455 1312.59 197.584C1300.86 193.953 1288.66 192.104 1276.38 192.104H1228.41V164.269H1363.93C1383.15 164.269 1398.73 148.692 1398.73 129.476V36.265C1398.73 16.314 1382.55 0.140625 1362.6 0.140625H1362.58Z" fill="#BFFF38"/>
<path fill-rule="evenodd" clip-rule="evenodd" d="M1797.72 186.355C1848.93 170.484 1883.84 123.114 1883.84 69.5021V0.140625H1680.24V108.661C1680.24 116.155 1674.48 122.604 1667 122.95C1659.01 123.33 1652.4 116.959 1652.4 109.05V0.140625H1448.8V69.4935C1448.8 123.105 1483.71 170.476 1534.92 186.346C1546.65 189.977 1558.86 191.827 1571.13 191.827H1619.11V219.661H1483.54C1464.35 219.661 1448.8 235.212 1448.8 254.403V403.015C1448.8 422.966 1464.97 439.139 1484.92 439.139H1847.72C1867.67 439.139 1883.84 422.966 1883.84 403.015V254.403C1883.84 235.212 1868.29 219.661 1849.1 219.661H1713.54V191.827H1761.51C1773.79 191.827 1785.99 189.977 1797.72 186.346V186.355Z" fill="#BFFF38"/>
<path fill-rule="evenodd" clip-rule="evenodd" d="M230.403 0.146484H37.0228C17.0718 0.146484 0.898438 16.3199 0.898438 36.2708V403.029C0.898438 422.98 17.0718 439.154 37.0228 439.154H230.403V202.483V0.146484ZM211.363 217.324V335.99C211.363 343.41 205.349 349.424 197.929 349.424C190.51 349.424 184.495 343.41 184.495 335.99V217.324H211.363ZM184.495 76.2677V132.242H211.363V76.2677C211.363 68.8483 205.349 62.8338 197.929 62.8338C190.51 62.8338 184.495 68.8483 184.495 76.2677Z" fill="#BFFF38"/>
<path d="M228.242 192.047H312.091C380.361 192.047 435.704 247.39 435.704 315.66V315.66C435.704 383.929 380.361 439.273 312.091 439.273H228.242V192.047Z" fill="#BFFF38"/>
<path d="M229.973 0.146484H306.042C351.396 0.146484 388.162 36.913 388.162 82.2669V82.2669C388.162 127.621 351.396 164.387 306.042 164.387H229.973V0.146484Z" fill="#BFFF38"/>
</svg>
